HIERARCHY
ROOT Hips
{
	OFFSET 0.000000 0.000000 0.000000
	CHANNELS 6 Xposition Yposition Zposition Zrotation Yrotation Xrotation 
	JOINT LHipJoint
	{
		OFFSET 0.000000 0.000000 0.000000
		CHANNELS 3 Zrotation Yrotation Xrotation
		JOINT LeftUpLeg
		{
			OFFSET 1.363060 -1.794630 0.839290
			CHANNELS 3 Zrotation Yrotation Xrotation
			JOINT LeftLeg
			{
				OFFSET 2.448110 -6.726130 0.000000
				CHANNELS 3 Zrotation Yrotation Xrotation
				JOINT LeftFoot
				{
					OFFSET 2.562200 -7.039590 0.000000
					CHANNELS 3 Zrotation Yrotation Xrotation
					JOINT LeftToeBase
					{
						OFFSET 0.157640 -0.433110 2.322550
						CHANNELS 3 Zrotation Yrotation Xrotation
						End Site
						{
							OFFSET 0.000000 0.000000 0.000000
						}
					}
				}
			}
		}
	}
	JOINT RHipJoint
	{
		OFFSET 0.000000 0.000000 0.000000
		CHANNELS 3 Zrotation Yrotation Xrotation
		JOINT RightUpLeg
		{
			OFFSET -1.305520 -1.794630 0.839290
			CHANNELS 3 Zrotation Yrotation Xrotation
			JOINT RightLeg
			{
				OFFSET -2.542530 -6.985550 0.000000
				CHANNELS 3 Zrotation Yrotation Xrotation
				JOINT RightFoot
				{
					OFFSET -2.568260 -7.056230 0.000000
					CHANNELS 3 Zrotation Yrotation Xrotation
					JOINT RightToeBase
					{
						OFFSET -0.164730 -0.452590 2.363150
						CHANNELS 3 Zrotation Yrotation Xrotation
						End Site
						{
							OFFSET 0.000000 0.000000 0.000000
						}
					}
				}
			}
		}
	}
}
MOTION
Frames: 13
Frame Time: 0.008333
-10.211029 16.802331 -0.899082 172.575225 84.565979 179.416147 -11.409259 5.689898 0.251079 -1.801999 9.093587 5.936379 -0.570654 2.365631 29.749071 0.609656 -8.915496 22.800601 -4.551600 0.000000 -89.768100 9.132700 0.023727 1.588914 10.250908 -2.672187 -33.986997 1.921384 -0.865529 21.999577 -1.710190 -7.943495 -2.315024 -1.533100 0.000000 -24.447500
-10.012389 16.746350 -0.908754 178.183512 84.805612 -175.237616 -11.716913 5.717586 0.170853 -0.607774 9.839576 4.697969 -0.403592 2.502897 33.002752 0.781526 -8.854429 24.046731 -4.790100 0.000001 -87.806001 8.981637 -0.016157 1.387436 11.085109 -2.828605 -34.458321 1.873565 -1.121815 25.039783 -1.690922 -7.645561 -3.335907 -1.290900 0.000000 -23.031401
-9.819762 16.687178 -0.919471 -176.028089 84.995201 -169.718153 -12.066088 5.713349 0.071451 0.572268 10.568471 3.365990 -0.251084 2.648567 36.405535 0.957521 -8.475230 25.135781 -4.847100 -0.000000 -84.519500 8.789093 -0.054741 1.162867 11.944711 -3.045131 -34.871412 1.821054 -1.349805 28.000468 -1.688193 -7.399657 -4.528573 -1.037500 -0.000000 -21.715600
-9.633866 16.625231 -0.930511 -170.382497 85.115022 -164.356150 -12.444530 5.665200 -0.054215 1.709247 11.261132 1.978376 -0.108632 2.807499 39.919004 1.127894 -7.738426 25.952110 -4.670500 0.000000 -79.934200 8.559284 -0.104435 0.919590 12.802781 -3.310126 -35.192744 1.765482 -1.552985 30.838927 -1.702978 -7.211066 -5.855458 -0.776900 0.000001 -20.551800
-9.454810 16.561223 -0.941508 -165.011190 85.158724 -159.282824 -12.840218 5.567351 -0.210362 2.801149 11.915486 0.549725 0.031030 2.984369 43.507528 1.285374 -6.645624 26.386926 -4.242300 0.000001 -74.259300 8.297934 -0.175283 0.667307 13.652621 -3.591562 -35.392718 1.711332 -1.733271 33.502546 -1.736863 -7.090797 -7.279228 -0.512600 -0.000000 -19.512599
-9.282546 16.496181 -0.951791 -160.063061 85.130052 -154.647315 -13.232920 5.419938 -0.398817 3.831848 12.522667 -0.899092 0.175617 3.182504 47.122142 1.425276 -5.224801 26.358130 -3.578300 0.000000 -67.877500 8.021109 -0.269118 0.412411 14.477081 -3.867651 -35.449451 1.662300 -1.894071 35.953197 -1.788131 -7.035002 -8.764140 -0.245300 0.000000 -18.601900
-9.116574 16.431304 -0.960887 -155.564437 85.042506 -150.470390 -13.608881 5.227976 -0.616791 4.791722 13.077944 -2.361344 0.331697 3.402635 50.714869 1.546034 -3.539574 25.823263 -2.734000 -0.000000 -61.283800 7.741153 -0.384052 0.162100 15.267926 -4.111073 -35.351349 1.621716 -2.037381 38.159699 -1.855130 -7.040677 -10.277639 0.024300 0.000000 -17.806200
-8.956274 16.368005 -0.967822 -151.617131 84.916626 -146.849333 -13.948602 5.001048 -0.858772 5.646697 13.567428 -3.826447 0.503009 3.642339 54.235032 1.648287 -1.665103 24.785049 -1.785500 -0.000000 -54.949100 7.479110 -0.510759 -0.080792 15.996724 -4.316701 -35.101736 1.590610 -2.166121 40.115211 -1.932878 -7.087781 -11.794675 0.296700 -0.000000 -17.116100
-8.800681 16.307780 -0.972209 -148.190611 84.772369 -143.742428 -14.245258 4.748930 -1.115441 6.377803 13.984639 -5.304312 0.690758 3.896519 57.645670 1.733653 0.308955 23.268636 -0.820901 0.000000 -49.191000 7.244034 -0.642649 -0.310095 16.652501 -4.470430 -34.715424 1.569741 -2.281179 41.814219 -2.018700 -7.167710 -13.290013 0.569900 0.000000 -16.514400
-8.648613 16.251989 -0.974015 -145.203347 84.623667 -141.054754 -14.499278 4.479163 -1.376388 6.977277 14.329441 -6.813643 0.893647 4.158248 60.918424 1.803736 2.294685 21.310443 0.075900 0.000000 -44.129100 7.037253 -0.776163 -0.518795 17.235752 -4.558907 -34.216021 1.559396 -2.383206 43.259372 -2.110936 -7.275916 -14.741043 0.841500 -0.000000 -15.978200
-8.498991 16.201967 -0.973192 -142.626272 84.481850 -138.745442 -14.708813 4.199287 -1.630617 7.429852 14.599309 -8.371748 1.107351 4.419384 64.025822 1.860295 4.222068 18.956656 0.838701 0.000000 -39.714200 6.862557 -0.907007 -0.702003 17.741979 -4.584981 -33.634885 1.558695 -2.473102 44.464214 -2.206586 -7.402322 -16.126099 1.108300 -0.000000 -15.505600
-8.350728 16.158961 -0.969542 -140.484868 84.359349 -136.829821 -14.869044 3.918115 -1.866794 7.710549 14.789573 -9.992934 1.324352 4.671003 66.938534 1.905695 6.041713 16.263705 1.422000 0.000000 -35.807700 6.727642 -1.029311 -0.857276 18.157338 -4.568630 -33.009485 1.565676 -2.551551 45.452337 -2.300639 -7.528896 -17.425028 1.365200 -0.000000 -15.116100
-8.202801 16.123925 -0.963644 -138.712884 84.259074 -135.231593 -14.984749 3.639563 -2.074012 7.820350 14.902680 -11.693036 1.535540 4.904403 69.630158 1.942429 7.709960 13.296288 1.795900 -0.000000 -32.238200 6.628278 -1.143673 -0.980659 18.490759 -4.520147 -32.370087 1.579342 -2.618399 46.238602 -2.390496 -7.649278 -18.616837 1.606400 0.000001 -14.820400
